<?xml version="1.0" encoding="iso-8859-1"?>
<!-- Generator: Adobe Illustrator 19.1.0, SVG Export Plug-In . SVG Version: 6.00 Build 0)  -->
<svg version="1.1" id="Capa_1" xmlns="http://www.w3.org/2000/svg" xmlns:xlink="http://www.w3.org/1999/xlink" x="0px" y="0px"
	 viewBox="0 0 25.419 25.419" style="enable-background:new 0 0 25.419 25.419;" xml:space="preserve">
<g>
	<path d="M25.366,8.855c0-1.536-2.754-2.489-6.037-3.019l4.872-2.595c0.265-0.159,0.371-0.477,0.212-0.741
		c-0.159-0.265-0.477-0.371-0.741-0.212l-6.196,3.283c-1.642-0.159-3.336-0.265-4.819-0.265c-1.748,0-3.76,0.106-5.666,0.371
		L1.059,2.553C0.794,2.394,0.477,2.5,0.318,2.765S0.265,3.347,0.53,3.506l4.713,2.489C2.33,6.525,0,7.425,0,8.855l0,0l0,0v10.856
		c0,2.542,7.626,3.495,12.71,3.495s12.71-0.953,12.71-3.495V8.855C25.366,8.855,25.366,8.855,25.366,8.855L25.366,8.855z
		 M6.726,6.842l4.607,2.436c0.053,0.053,0.159,0.053,0.265,0.053c0.212,0,0.371-0.106,0.477-0.265
		c0.159-0.265,0.053-0.583-0.212-0.741L8.685,6.63c1.218-0.106,2.542-0.159,4.025-0.159c1.112,0,2.171,0.053,3.124,0.106
		l-2.913,1.536c-0.265,0.159-0.371,0.477-0.212,0.741c0.106,0.159,0.265,0.265,0.477,0.265c0.106,0,0.159,0,0.265-0.053l4.342-2.277
		c4.342,0.477,6.567,1.536,6.567,2.171c0,0.847-4.025,2.436-11.65,2.436c-7.626,0-11.65-1.589-11.65-2.436
		C1.006,8.272,2.966,7.319,6.726,6.842z M23.513,10.761l-5.19,10.697l-4.872-9.109C16.946,12.297,21.183,11.82,23.513,10.761z
		 M11.809,12.35l-4.872,9.109l-5.19-10.697C4.131,11.82,8.367,12.297,11.809,12.35z M1.006,19.764v-8.155L5.878,21.67
		C2.648,21.141,1.006,20.293,1.006,19.764z M7.891,21.935l4.766-8.95l4.766,8.95c-1.377,0.159-2.966,0.212-4.766,0.212
		S9.267,22.094,7.891,21.935z M19.435,21.67l4.872-10.062v8.155C24.307,20.293,22.665,21.141,19.435,21.67z"/>
</g>
<g>
</g>
<g>
</g>
<g>
</g>
<g>
</g>
<g>
</g>
<g>
</g>
<g>
</g>
<g>
</g>
<g>
</g>
<g>
</g>
<g>
</g>
<g>
</g>
<g>
</g>
<g>
</g>
<g>
</g>
</svg>
