<?xml version="1.0" ?><svg id="Icons_ParentAndChild" overflow="hidden" version="1.1" viewBox="0 0 96 96" xmlns="http://www.w3.org/2000/svg" xmlns:xlink="http://www.w3.org/1999/xlink"><g><circle cx="38.1" cy="15" r="7"/><path d=" M 56 53.4 L 51.3 29.8 C 49.4 27.7 47 26.1 44.2 25.1 C 42.3 24.4 40.2 24 38 24 C 35.8 24 33.8 24.4 31.8 25.1 C 29.1 26.1 26.7 27.7 24.7 29.8 L 20 53.4 C 19.7 55 20.7 56.6 22.4 56.9 C 22.6 56.9 22.8 57 23 57 C 24.4 57 25.7 56 25.9 54.6 L 30.1 34.3 L 30.1 88 L 36.1 88 L 36.1 57 L 40.1 57 L 40.1 88 L 46.1 88 L 46.1 34.3 L 50.2 54.6 C 50.4 56 51.7 57 53.1 57 C 53.3 57 53.5 57 53.7 56.9 C 55.3 56.6 56.4 55 56 53.4 Z"/><circle cx="65.1" cy="56" r="5"/><path d=" M 75.9 74.2 L 72.4 65.8 C 71.2 64.1 69.3 62.8 67.2 62.2 C 66.6 62.1 65.8 62 65.1 62 L 60.1 62 L 54.8 53 C 54.2 52 53 51.7 52.1 52.3 C 51.1 52.9 50.8 54.1 51.4 55 L 60.1 69.8 L 60.1 88 L 64.1 88 L 64.1 76 L 66.1 76 L 66.1 88 L 70.1 88 L 70.1 70.6 L 72.3 75.8 C 72.6 76.6 73.4 77 74.1 77 C 74.4 77 74.6 77 74.9 76.8 C 75.9 76.4 76.4 75.2 75.9 74.2 Z"/></g></svg>